<svg width="85" height="25" viewBox="0 0 85 25" fill="none" xmlns="http://www.w3.org/2000/svg">
<path d="M9.0625 2.84375C10.1042 2.90625 10.9792 2.95833 11.6875 3C12.4167 3.02083 13.0208 3.04167 13.5 3.0625C14.0417 3.08333 14.5 3.08333 14.875 3.0625C15.25 3.04167 15.7604 2.98958 16.4062 2.90625C16.9479 2.84375 17.6667 2.75 18.5625 2.625C19.4792 2.47917 20.6146 2.29167 21.9688 2.0625C21.4896 2.54167 21.1146 2.97917 20.8438 3.375C20.5938 3.75 20.3958 4.07292 20.25 4.34375C20.0833 4.67708 19.9688 4.95833 19.9062 5.1875C19.8646 5.39583 19.9062 5.91667 20.0312 6.75C20.1562 7.58333 20.3333 8.57292 20.5625 9.71875C20.7917 10.8438 21.0417 12.0521 21.3125 13.3438C21.5833 14.6146 21.8542 15.8125 22.125 16.9375C22.3958 18.0417 22.6354 18.9896 22.8438 19.7812C23.0729 20.5521 23.2396 21.0104 23.3438 21.1562C23.6562 21.5938 23.8542 21.8854 23.9375 22.0312C24.0208 22.1562 24.1667 22.2708 24.375 22.375C24.4583 22.4167 24.5938 22.4792 24.7812 22.5625C24.9479 22.6458 25.1667 22.75 25.4375 22.875C25.7292 23 26.0938 23.1458 26.5312 23.3125C25.7188 23.3542 25.0208 23.3854 24.4375 23.4062C23.8542 23.4062 23.375 23.4167 23 23.4375C22.5625 23.4583 22.1875 23.4792 21.875 23.5C21.5625 23.5 21.1875 23.5208 20.75 23.5625C20.375 23.6042 19.8854 23.6458 19.2812 23.6875C18.6979 23.7292 18.0104 23.7708 17.2188 23.8125C17.6354 23.5208 17.9688 23.2604 18.2188 23.0312C18.4896 22.7812 18.6979 22.5729 18.8438 22.4062C19.0104 22.1979 19.125 22.0104 19.1875 21.8438C19.2292 21.6562 19.2604 21.375 19.2812 21C19.3021 20.6667 19.3021 20.2292 19.2812 19.6875C19.2604 19.125 19.2083 18.3958 19.125 17.5L10.9062 18.3438C10.6979 18.6979 10.5417 19.0104 10.4375 19.2812C10.3333 19.5312 10.2604 19.75 10.2188 19.9375C10.1562 20.1667 10.1354 20.3542 10.1562 20.5C10.1979 20.6667 10.2708 20.8646 10.375 21.0938C10.4792 21.3021 10.625 21.5521 10.8125 21.8438C11.0208 22.1146 11.3229 22.4375 11.7188 22.8125C11.1979 22.7917 10.6667 22.7812 10.125 22.7812C9.58333 22.7812 9.08333 22.7917 8.625 22.8125C8.08333 22.8333 7.55208 22.8542 7.03125 22.875C6.51042 22.8958 5.91667 22.9271 5.25 22.9688C4.6875 23.0104 4.03125 23.0625 3.28125 23.125C2.51042 23.1667 1.6875 23.2292 0.8125 23.3125C1.35417 23.0625 1.8125 22.8125 2.1875 22.5625C2.5625 22.2917 2.875 22.0417 3.125 21.8125C3.41667 21.5625 3.66667 21.3229 3.875 21.0938C4.02083 20.8854 4.3125 20.4062 4.75 19.6562C5.1875 18.8854 5.67708 17.9792 6.21875 16.9375C6.78125 15.8958 7.36458 14.7812 7.96875 13.5938C8.59375 12.4062 9.15625 11.2917 9.65625 10.25C10.1562 9.1875 10.5625 8.27083 10.875 7.5C11.1875 6.72917 11.3438 6.22917 11.3438 6C11.3021 5.72917 11.1979 5.42708 11.0312 5.09375C10.8854 4.80208 10.6562 4.46875 10.3438 4.09375C10.0521 3.71875 9.625 3.30208 9.0625 2.84375ZM18.75 15.1875C18.625 14.4583 18.5104 13.8333 18.4062 13.3125C18.3021 12.7708 18.2188 12.3229 18.1562 11.9688C18.0729 11.5521 18.0104 11.1875 17.9688 10.875C17.9062 10.5833 17.8333 10.2083 17.75 9.75C17.6667 9.35417 17.5625 8.86458 17.4375 8.28125C17.3333 7.67708 17.1979 6.95833 17.0312 6.125C15.8438 8.5 14.9167 10.3438 14.25 11.6562C13.6042 12.9479 13.1354 13.8958 12.8438 14.5C12.4896 15.2083 12.2917 15.625 12.25 15.75L18.75 15.1875ZM23.7812 1.1875C24.4479 1.29167 25.0521 1.38542 25.5938 1.46875C26.1354 1.53125 26.6042 1.58333 27 1.625C27.4583 1.6875 27.8646 1.73958 28.2188 1.78125C28.6562 1.84375 29.3125 1.77083 30.1875 1.5625C31.0625 1.33333 32.0208 1.125 33.0625 0.9375C34.125 0.729167 35.2083 0.614583 36.3125 0.59375C37.4167 0.552083 38.4271 0.75 39.3438 1.1875C40.2604 1.625 41.0104 2.0625 41.5938 2.5C42.1771 2.9375 42.6354 3.40625 42.9688 3.90625C43.3229 4.38542 43.5729 4.89583 43.7188 5.4375C43.8646 5.97917 43.9479 6.57292 43.9688 7.21875C43.9479 8.17708 43.7188 9.10417 43.2812 10C43.0938 10.375 42.8438 10.7708 42.5312 11.1875C42.2396 11.5833 41.875 11.9688 41.4375 12.3438C41 12.7188 40.4792 13.0729 39.875 13.4062C39.2917 13.7396 38.6042 14.0312 37.8125 14.2812C38.5833 14.5104 39.2188 14.7812 39.7188 15.0938C40.2396 15.4062 40.6562 15.6979 40.9688 15.9688C41.3438 16.3021 41.625 16.625 41.8125 16.9375C42.0417 17.375 42.1979 17.75 42.2812 18.0625C42.3646 18.375 42.4167 18.6771 42.4375 18.9688C42.4792 19.2396 42.5312 19.5208 42.5938 19.8125C42.6562 20.1042 42.7917 20.4375 43 20.8125C43.1667 21.1042 43.3646 21.4062 43.5938 21.7188C43.8021 21.9896 44.0417 22.2812 44.3125 22.5938C44.6042 22.9062 44.9583 23.2083 45.375 23.5C44.7917 23.5208 44.25 23.5312 43.75 23.5312C43.2708 23.5312 42.8542 23.5312 42.5 23.5312C42.0833 23.5312 41.6875 23.5208 41.3125 23.5C40.9375 23.4792 40.4688 23.4688 39.9062 23.4688C39.4271 23.4688 38.8125 23.4688 38.0625 23.4688C37.3333 23.4688 36.4479 23.4792 35.4062 23.5C35.8646 23.1458 36.2396 22.7917 36.5312 22.4375C36.8229 22.0833 37.0521 21.7604 37.2188 21.4688C37.4062 21.1354 37.5417 20.8125 37.625 20.5C37.7292 19.9375 37.7396 19.3542 37.6562 18.75C37.5938 18.2292 37.4271 17.6562 37.1562 17.0312C36.8854 16.3854 36.4479 15.7396 35.8438 15.0938C35.2396 15.1979 34.7292 15.2812 34.3125 15.3438C33.9167 15.3854 33.5729 15.4271 33.2812 15.4688C32.9479 15.5104 32.6771 15.5417 32.4688 15.5625C32.2812 15.5833 32.0729 15.6042 31.8438 15.625C31.6562 15.6458 31.4479 15.6771 31.2188 15.7188C31.0104 15.7396 30.8125 15.7708 30.625 15.8125C30.5833 16.7083 30.5833 17.4896 30.625 18.1562C30.6667 18.8021 30.7188 19.3438 30.7812 19.7812C30.8646 20.3021 30.9583 20.75 31.0625 21.125C31.1667 21.5 31.3125 21.8646 31.5 22.2188C31.6458 22.5104 31.8333 22.8229 32.0625 23.1562C32.2917 23.4688 32.5521 23.7292 32.8438 23.9375C32.3021 23.9375 31.7812 23.9375 31.2812 23.9375C30.8021 23.9375 30.3646 23.9271 29.9688 23.9062C29.5104 23.9062 29.0729 23.8958 28.6562 23.875C28.2396 23.8542 27.7708 23.8438 27.25 23.8438C26.8125 23.8438 26.2917 23.8438 25.6875 23.8438C25.1042 23.8438 24.4688 23.8542 23.7812 23.875C24.3229 23.3125 24.75 22.8333 25.0625 22.4375C25.375 22.0417 25.6146 21.7083 25.7812 21.4375C25.9688 21.1458 26.0833 20.8958 26.125 20.6875C26.1667 20.3542 26.1979 19.7604 26.2188 18.9062C26.2604 18.0312 26.2917 17.0312 26.3125 15.9062C26.3333 14.7812 26.3438 13.6042 26.3438 12.375C26.3438 11.1458 26.3333 10 26.3125 8.9375C26.2917 7.85417 26.2708 6.92708 26.25 6.15625C26.2292 5.38542 26.2083 4.89583 26.1875 4.6875C26.125 4.3125 25.9896 3.9375 25.7812 3.5625C25.6146 3.22917 25.375 2.85417 25.0625 2.4375C24.75 2.02083 24.3229 1.60417 23.7812 1.1875ZM35.5938 12.1875C35.8021 12.0625 35.9792 11.9375 36.125 11.8125C36.2708 11.6875 36.3958 11.4896 36.5 11.2188C36.6042 10.9271 36.6875 10.5208 36.75 10C36.8333 9.47917 36.9271 8.77083 37.0312 7.875C37.1146 6.97917 37.0521 6.23958 36.8438 5.65625C36.6562 5.07292 36.3958 4.61458 36.0625 4.28125C35.75 3.92708 35.3958 3.6875 35 3.5625C34.625 3.41667 34.2917 3.34375 34 3.34375C33.4167 3.34375 32.8438 3.52083 32.2812 3.875C31.7188 4.22917 31.2917 4.70833 31 5.3125C30.8958 5.58333 30.8021 6.03125 30.7188 6.65625C30.6562 7.19792 30.6146 7.94792 30.5938 8.90625C30.5729 9.86458 30.6042 11.125 30.6875 12.6875C31.4792 12.8125 32.1771 12.8646 32.7812 12.8438C33.3854 12.8021 33.8958 12.7292 34.3125 12.625C34.8125 12.5208 35.2396 12.375 35.5938 12.1875ZM43.4688 2.65625C44.9271 2.69792 46.1354 2.72917 47.0938 2.75C48.0729 2.75 48.8646 2.75 49.4688 2.75H51.125H60.4375C60.4792 3.16667 60.5104 3.57292 60.5312 3.96875C60.5729 4.34375 60.5938 4.67708 60.5938 4.96875C60.5938 5.32292 60.5833 5.64583 60.5625 5.9375C60.5417 6.22917 60.5104 6.54167 60.4688 6.875C60.4271 7.16667 60.3854 7.47917 60.3438 7.8125C60.3021 8.14583 60.2292 8.48958 60.125 8.84375C59.8333 7.71875 59.4375 6.86458 58.9375 6.28125C58.4583 5.69792 57.9688 5.27083 57.4688 5C56.8854 4.6875 56.2708 4.52083 55.625 4.5C54.7708 4.54167 54.1042 4.61458 53.625 4.71875C53.1458 4.82292 52.7708 4.96875 52.5 5.15625C52.2292 5.34375 52.0208 5.5625 51.875 5.8125C51.75 6.04167 51.6146 6.30208 51.4688 6.59375C51.3438 6.84375 51.2292 7.22917 51.125 7.75C51.0208 8.1875 50.9167 8.78125 50.8125 9.53125C50.7292 10.2812 50.6354 11.25 50.5312 12.4375C51.0938 12.2708 51.5417 12.1146 51.875 11.9688C52.2292 11.8229 52.5104 11.6979 52.7188 11.5938C52.9479 11.4688 53.1146 11.3542 53.2188 11.25C53.3021 11.125 53.4271 10.8958 53.5938 10.5625C53.7188 10.2708 53.8854 9.875 54.0938 9.375C54.3229 8.875 54.5938 8.1875 54.9062 7.3125C54.9479 8.27083 54.9688 9.07292 54.9688 9.71875C54.9688 10.3438 54.9792 10.8542 55 11.25C55 11.7083 55.0104 12.0729 55.0312 12.3438V13.5312C55.0312 13.9688 55.0312 14.5625 55.0312 15.3125C55.0521 16.0417 55.0833 16.9688 55.125 18.0938C54.875 17.3229 54.6458 16.7188 54.4375 16.2812C54.25 15.8229 54.0833 15.4792 53.9375 15.25C53.7708 14.9792 53.625 14.7917 53.5 14.6875C53.3542 14.6458 53.1562 14.6042 52.9062 14.5625C52.6771 14.5417 52.3854 14.5312 52.0312 14.5312C51.6979 14.5312 51.2708 14.5833 50.75 14.6875C50.6875 15.8333 50.6771 16.7604 50.7188 17.4688C50.7812 18.1562 50.8646 18.6875 50.9688 19.0625C51.0729 19.5 51.1979 19.8125 51.3438 20C51.5312 20.1875 51.9062 20.3438 52.4688 20.4688C53.0312 20.5729 53.6667 20.6146 54.375 20.5938C55.1042 20.5521 55.8438 20.4271 56.5938 20.2188C57.3438 20.0104 58.0104 19.6667 58.5938 19.1875C59.0312 18.7917 59.5 18.2917 60 17.6875C60.4167 17.1667 60.875 16.5104 61.375 15.7188C61.8958 14.9271 62.4062 13.9688 62.9062 12.8438C62.8229 13.7812 62.7604 14.5625 62.7188 15.1875C62.6979 15.7917 62.6667 16.2812 62.625 16.6562C62.5833 17.0938 62.5521 17.4271 62.5312 17.6562C62.5312 17.9062 62.5 18.2604 62.4375 18.7188C62.3958 19.1146 62.3229 19.6562 62.2188 20.3438C62.1354 21.0104 62.0208 21.8646 61.875 22.9062C60.8958 22.9271 59.9688 22.9479 59.0938 22.9688C58.2188 22.9688 57.4479 22.9792 56.7812 23C55.9896 23.0208 55.2604 23.0417 54.5938 23.0625C53.9062 23.0625 53.1458 23.0938 52.3125 23.1562C51.5833 23.1979 50.7188 23.2604 49.7188 23.3438C48.7396 23.4271 47.6562 23.5417 46.4688 23.6875C46.5729 22.2708 46.6458 20.9375 46.6875 19.6875C46.75 18.4167 46.7917 17.3021 46.8125 16.3438C46.8333 15.2188 46.8333 14.1771 46.8125 13.2188C46.9167 10.8229 46.875 8.88542 46.6875 7.40625C46.5 5.92708 46.2812 4.97917 46.0312 4.5625C45.9062 4.41667 45.7292 4.23958 45.5 4.03125C45.3125 3.86458 45.0521 3.66667 44.7188 3.4375C44.3854 3.20833 43.9688 2.94792 43.4688 2.65625ZM84.125 1.125C83.8333 1.79167 83.5729 2.375 83.3438 2.875C83.1146 3.375 82.9167 3.80208 82.75 4.15625C82.5625 4.55208 82.4062 4.90625 82.2812 5.21875C82.1771 5.44792 82.0417 5.76042 81.875 6.15625C81.7083 6.51042 81.5 6.97917 81.25 7.5625C81.0208 8.125 80.7188 8.85417 80.3438 9.75C80.1562 8.97917 79.9271 8.30208 79.6562 7.71875C79.3854 7.13542 79.0938 6.625 78.7812 6.1875C78.4688 5.75 78.1354 5.39583 77.7812 5.125C77.4479 4.83333 77.1146 4.59375 76.7812 4.40625C76.0104 3.98958 75.1979 3.76042 74.3438 3.71875C73.2188 3.78125 72.3333 3.96875 71.6875 4.28125C71.0625 4.57292 70.6042 4.91667 70.3125 5.3125C70.0208 5.6875 69.8646 6.08333 69.8438 6.5C69.8229 6.89583 69.875 7.22917 70 7.5C70.1042 7.75 70.4688 8.04167 71.0938 8.375C71.7396 8.70833 72.5104 9.09375 73.4062 9.53125C74.3229 9.94792 75.3021 10.4271 76.3438 10.9688C77.3854 11.4896 78.3438 12.0729 79.2188 12.7188C80.1146 13.3438 80.8646 14.0312 81.4688 14.7812C82.0938 15.5104 82.4375 16.2917 82.5 17.125C82.5625 18.1875 82.5521 19.1458 82.4688 20C82.3854 20.8542 82.0938 21.5833 81.5938 22.1875C81.0938 22.7917 80.3125 23.2708 79.25 23.625C78.2083 23.9792 76.7604 24.1979 74.9062 24.2812C72.9896 24.3646 71.4167 24.2604 70.1875 23.9688C68.9583 23.6771 67.9583 23.2812 67.1875 22.7812C66.4375 22.2812 65.875 21.7292 65.5 21.125C65.1458 20.5208 64.8854 19.9479 64.7188 19.4062C64.5521 18.8438 64.4375 18.3646 64.375 17.9688C64.3125 17.5521 64.2083 17.3021 64.0625 17.2188C63.8958 17.1146 63.7292 17.0208 63.5625 16.9375C63.4167 16.8542 63.2604 16.7812 63.0938 16.7188C62.9271 16.6354 62.7604 16.5625 62.5938 16.5L71.6875 15.0312C71.1667 15.4479 70.7604 15.8333 70.4688 16.1875C70.1979 16.5417 69.9896 16.8542 69.8438 17.125C69.6771 17.4375 69.5625 17.7292 69.5 18C69.4583 18.2917 69.5521 18.6562 69.7812 19.0938C70.0104 19.5312 70.3229 19.9583 70.7188 20.375C71.1354 20.7708 71.6146 21.1042 72.1562 21.375C72.6979 21.6458 73.2604 21.7604 73.8438 21.7188C74.5729 21.6562 75.1667 21.4792 75.625 21.1875C76.0833 20.875 76.4271 20.4896 76.6562 20.0312C76.9062 19.5729 77.0521 19.0729 77.0938 18.5312C77.1354 17.9896 77.0833 17.4583 76.9375 16.9375C76.8125 16.3958 76.6042 15.8958 76.3125 15.4375C76.0208 14.9583 75.6771 14.5625 75.2812 14.25C74.9271 14 74.375 13.7604 73.625 13.5312C72.8958 13.3021 72.0729 13.0521 71.1562 12.7812C70.2604 12.5104 69.3333 12.1979 68.375 11.8438C67.4375 11.4896 66.5833 11.0521 65.8125 10.5312C65.0625 10.0104 64.4583 9.39583 64 8.6875C63.5625 7.97917 63.3958 7.125 63.5 6.125C63.5833 5.27083 63.8542 4.5625 64.3125 4C64.7917 3.41667 65.3854 2.95833 66.0938 2.625C66.8229 2.27083 67.625 2.01042 68.5 1.84375C69.3958 1.67708 70.3021 1.58333 71.2188 1.5625C72.1562 1.52083 73.0729 1.53125 73.9688 1.59375C74.8854 1.65625 75.7083 1.72917 76.4375 1.8125C77.1667 1.89583 77.7812 1.97917 78.2812 2.0625C78.8021 2.125 79.125 2.16667 79.25 2.1875C79.7917 2.22917 80.3333 2.21875 80.875 2.15625C81.3542 2.11458 81.875 2.02083 82.4375 1.875C83.0208 1.70833 83.5833 1.45833 84.125 1.125Z" fill="black"/>
</svg>
